custom-analysis
version=1
nRows=15
nColumns=42
inDegrees=no

This file contains tibia displacement and acting force.

Units are S.I. units (seconds, meters, Newtons, ...)
Angles are in degrees.

endheader
time	APT	SIT	knee_angle	aACL_R_force	pACL_R_force	aPCL_R_force	pPCL_R_force	aMCL_R_force	mMCL_R_force	pMCL_R_force	aLCL_R_force	mLCL_R_force	pLCL_R_force	aACL_R_length	pACL_R_length	aPCL_R_length	pPCL_R_length	aMCL_R_length	mMCL_R_length	pMCL_R_length	aLCL_R_length	mLCL_R_length	pLCL_R_length	aACL_R_strain	pACL_R_strain	aPCL_R_strain	pPCL_R_strain	aMCL_R_strain	mMCL_R_strain	pMCL_R_strain	aLCL_R_strain	mLCL_R_strain	pLCL_R_strain	femur_lat_meniscii_force_r	femur_lat_meniscii_torque_r	femur_med_meniscii_force_r	femur_med_meniscii_torque_r	femur_lat_tibia_force_r	femur_lat_tibia_torque_r	femur_med_tibia_force_r	femur_med_tibia_torque_r
      0.19348690	      0.00174315	     -0.00022238	     30.00011112	     60.95142944	     41.68948739	     95.78777752	     59.68949035	      0.00000000	      0.00000000	      0.00000000	      1.39238229	      0.00000000	      0.00000000	      0.03379671	      0.02703588	      0.03225880	      0.03079603	      0.05683515	      0.05873899	      0.05780007	      0.05693874	      0.05366840	      0.04995265	      0.09002314	      0.06613836	      0.03741712	      0.02353871	     -0.02053959	     -0.01763589	     -0.04821381	      0.01717731	     -0.04705725	     -0.04566164	    211.11133996	     64.93259076	     69.41479956	     23.54222009	      0.00000000	      0.00000000	     43.03404619	      1.04788166
      0.19616659	      0.00174692	     -0.00022163	     30.00011112	     61.44083710	     42.22720183	     96.01414015	     60.91804868	      0.00000000	      0.00000000	      0.00000000	      3.31261101	      0.00000000	      0.00000000	      0.03379851	      0.02703747	      0.03225633	      0.03079345	      0.05683333	      0.05873707	      0.05779827	      0.05693920	      0.05366899	      0.04995319	      0.09008099	      0.06620106	      0.03733783	      0.02345300	     -0.02057096	     -0.01766800	     -0.04824343	      0.01718552	     -0.04704688	     -0.04565125	    203.26397774	     62.52745771	     69.36569430	     23.53751429	      0.00000000	      0.00000000	     42.92317588	      1.04509814
      0.19857442	      0.00174942	     -0.00022308	     30.00011112	     61.28170177	     42.07063066	     95.55451112	     59.63241189	      0.00000000	      0.00000000	      0.00000000	      2.31088091	      0.00000000	      0.00000000	      0.03380153	      0.02704046	      0.03225645	      0.03079338	      0.05683322	      0.05873689	      0.05779817	      0.05694265	      0.05367255	      0.04995672	      0.09017862	      0.06631880	      0.03734171	      0.02345077	     -0.02057278	     -0.01767104	     -0.04824506	      0.01724726	     -0.04698365	     -0.04558384	    206.93936835	     63.69935355	     71.78496141	     24.38525203	      0.00000000	      0.00000000	     43.32506258	      1.05498256
      0.20098226	      0.00175233	     -0.00022301	     30.00011112	     61.58425488	     42.41267510	     95.65997034	     60.21604401	      0.00000000	      0.00000000	      0.00000000	      3.33358515	      0.00000000	      0.00000000	      0.03380375	      0.02704266	      0.03225513	      0.03079181	      0.05683125	      0.05873482	      0.05779622	      0.05694516	      0.05367518	      0.04995931	      0.09025027	      0.06640559	      0.03729921	      0.02339858	     -0.02060678	     -0.01770559	     -0.04827731	      0.01729209	     -0.04693693	     -0.04553428	    202.13509533	     62.23113707	     72.48345518	     24.62409637	      0.00000000	      0.00000000	     43.45784277	      1.05772677
      0.20339009	      0.00175478	     -0.00022393	     30.00011112	     61.63444555	     42.48704208	     95.47010089	     59.71676261	      0.00000000	      0.00000000	      0.00000000	      3.11533716	      0.00000000	      0.00000000	      0.03380669	      0.02704566	      0.03225491	      0.03079128	      0.05682986	      0.05873334	      0.05779483	      0.05694925	      0.05367938	      0.04996348	      0.09034484	      0.06652405	      0.03729214	      0.02338105	     -0.02063077	     -0.01773033	     -0.04830012	      0.01736508	     -0.04686226	     -0.04545464	    202.08244514	     62.24656679	     74.33215941	     25.26094483	      0.00000000	      0.00000000	     43.83753338	      1.06683905
      0.20646647	      0.00175806	     -0.00022428	     30.00011112	     61.95607132	     42.86098657	     95.56896185	     60.17082002	      0.00000000	      0.00000000	      0.00000000	      3.98294065	      0.00000000	      0.00000000	      0.03381010	      0.02704922	      0.03225388	      0.03078980	      0.05682685	      0.05873021	      0.05779183	      0.05695425	      0.05368455	      0.04996860	      0.09045485	      0.06666437	      0.03725913	      0.02333166	     -0.02068265	     -0.01778270	     -0.04834951	      0.01745448	     -0.04677051	     -0.04535689	    196.97843315	     60.60963908	     75.64791026	     25.70827049	      0.00000000	      0.00000000	     44.18633711	      1.07477478
      0.20902865	      0.00176044	     -0.00022572	     30.00011112	     61.93583791	     42.85727082	     95.27997973	     59.24683790	      0.00000000	      0.00000000	      0.00000000	      3.26773905	      0.00000000	      0.00000000	      0.03381378	      0.02705309	      0.03225423	      0.03078971	      0.05682514	      0.05872841	      0.05779013	      0.05696008	      0.05369051	      0.04997452	      0.09057350	      0.06681697	      0.03727012	      0.02332869	     -0.02071202	     -0.01781283	     -0.04837754	      0.01755854	     -0.04666468	     -0.04524381	    198.53143768	     61.14241957	     78.28745552	     26.61731437	      0.00000000	      0.00000000	     44.73992448	      1.08840799
      0.21159083	      0.00176355	     -0.00022597	     30.00011112	     62.33075284	     43.29376191	     95.45857494	     59.91426255	      0.00000000	      0.00000000	      0.00000000	      4.31721747	      0.00000000	      0.00000000	      0.03381694	      0.02705640	      0.03225323	      0.03078826	      0.05682210	      0.05872525	      0.05778710	      0.05696496	      0.05369555	      0.04997951	      0.09067567	      0.06694755	      0.03723808	      0.02328049	     -0.02076445	     -0.01786567	     -0.04842741	      0.01764580	     -0.04657514	     -0.04514836	    192.99657972	     59.35551725	     79.29517408	     26.95934858	      0.00000000	      0.00000000	     44.95869477	      1.09295260
      0.21415301	      0.00176645	     -0.00022763	     30.00011112	     62.33089122	     43.30818216	     95.24415394	     59.16024851	      0.00000000	      0.00000000	      0.00000000	      3.70505046	      0.00000000	      0.00000000	      0.03382105	      0.02706065	      0.03225365	      0.03078821	      0.05682030	      0.05872334	      0.05778532	      0.05697164	      0.05370239	      0.04998631	      0.09080795	      0.06711519	      0.03725171	      0.02327877	     -0.02079542	     -0.01789767	     -0.04845680	      0.01776502	     -0.04645373	     -0.04501854	    193.88908149	     59.67538611	     82.04999293	     27.90636928	      0.00000000	      0.00000000	     45.41473368	      1.10403281
      0.21671519	      0.00176973	     -0.00022826	     30.00011112	     62.63253890	     43.65226289	     95.43914193	     59.74415271	      0.00000000	      0.00000000	      0.00000000	      4.50581036	      0.00000000	      0.00000000	      0.03382447	      0.02706419	      0.03225309	      0.03078715	      0.05681741	      0.05872032	      0.05778245	      0.05697749	      0.05370842	      0.04999230	      0.09091847	      0.06725468	      0.03723363	      0.02324376	     -0.02084521	     -0.01794814	     -0.04850397	      0.01786962	     -0.04634661	     -0.04490408	    189.12052119	     58.22827519	     83.33313199	     28.33486573	      0.00000000	      0.00000000	     45.62275927	      1.10806235
      0.21927737	      0.00177247	     -0.00022986	     30.00011112	     62.65579535	     43.69918731	     95.34277731	     59.24211050	      0.00000000	      0.00000000	      0.00000000	      4.05871861	      0.00000000	      0.00000000	      0.03382835	      0.02706823	      0.03225369	      0.03078724	      0.05681536	      0.05871815	      0.05778042	      0.05698461	      0.05371571	      0.04999955	      0.09104358	      0.06741379	      0.03725302	      0.02324675	     -0.02088055	     -0.01798442	     -0.04853739	      0.01799676	     -0.04621722	     -0.04476554	    189.06465557	     58.14283059	     85.93634614	     29.21693113	      0.00000000	      0.00000000	     46.04448822	      1.11820264
      0.22243585	      0.00177626	     -0.00023058	     30.00011112	     63.09074491	     44.19198626	     95.68038236	     60.15541580	      0.00000000	      0.00000000	      0.00000000	      5.21256611	      0.00000000	      0.00000000	      0.03383238	      0.02707242	      0.03225320	      0.03078610	      0.05681151	      0.05871414	      0.05777661	      0.05699229	      0.05372362	      0.05000741	      0.09117341	      0.06757904	      0.03723715	      0.02320879	     -0.02094689	     -0.01805145	     -0.04860019	      0.01813404	     -0.04607684	     -0.04461537	    182.41256479	     56.11200177	     87.27451826	     29.65505586	      0.00000000	      0.00000000	     46.26425771	      1.12339165
      0.22480925	      0.00177849	     -0.00023264	     30.00011112	     62.97848099	     44.09188881	     95.44466953	     59.10712892	      0.00000000	      0.00000000	      0.00000000	      4.12889737	      0.00000000	      0.00000000	      0.03383629	      0.02707651	      0.03225447	      0.03078687	      0.05681001	      0.05871253	      0.05777512	      0.05699983	      0.05373131	      0.05001507	      0.09129958	      0.06774046	      0.03727804	      0.02323426	     -0.02097282	     -0.01807838	     -0.04862464	      0.01826861	     -0.04594029	     -0.04446902	    184.63116071	     56.80474533	     90.56835463	     30.77905496	      0.00000000	      0.00000000	     46.77378072	      1.13465831
      0.22718265	      0.00178110	     -0.00023337	     30.00011112	     63.24189044	     44.39943871	     95.68283908	     59.65675231	      0.00000000	      0.00000000	      0.00000000	      4.78561942	      0.00000000	      0.00000000	      0.03383937	      0.02707975	      0.03225443	      0.03078631	      0.05680716	      0.05870956	      0.05777230	      0.05700608	      0.05373772	      0.05002145	      0.09139888	      0.06786810	      0.03727670	      0.02321583	     -0.02102194	     -0.01812800	     -0.04867115	      0.01838027	     -0.04582639	     -0.04434706	    180.52981442	     55.56649796	     91.78340951	     31.17861712	      0.00000000	      0.00000000	     47.00126104	      1.14012103
      0.23023759	      0.00178394	     -0.00023530	     30.00011112	     63.30325703	     44.48915158	     95.65103793	     59.15480047	      0.00000000	      0.00000000	      0.00000000	      4.32068333	      0.00000000	      0.00000000	      0.03384382	      0.02708444	      0.03225555	      0.03078676	      0.05680438	      0.05870665	      0.05776955	      0.05701538	      0.05374723	      0.05003093	      0.09154244	      0.06805322	      0.03731279	      0.02323057	     -0.02106981	     -0.01817680	     -0.04871636	      0.01854651	     -0.04565750	     -0.04416602	    179.60633244	     55.20116088	     95.10567282	     32.29981120	      0.00000000	      0.00000000	     47.52039690	      1.15232636
